<svg width="48" height="48" viewBox="0 0 48 48" fill="none" xmlns="http://www.w3.org/2000/svg">
<g id="facebook-square">
<path id="Vector" d="M40.5 3H7.5C6.30653 3 5.16193 3.47411 4.31802 4.31802C3.47411 5.16193 3 6.30653 3 7.5L3 40.5C3 41.6935 3.47411 42.8381 4.31802 43.682C5.16193 44.5259 6.30653 45 7.5 45H20.3672V30.7209H14.4609V24H20.3672V18.8775C20.3672 13.0509 23.8359 9.8325 29.1488 9.8325C31.6931 9.8325 34.3538 10.2863 34.3538 10.2863V16.005H31.4222C28.5338 16.005 27.6328 17.7975 27.6328 19.6359V24H34.0809L33.0497 30.7209H27.6328V45H40.5C41.6935 45 42.8381 44.5259 43.682 43.682C44.5259 42.8381 45 41.6935 45 40.5V7.5C45 6.30653 44.5259 5.16193 43.682 4.31802C42.8381 3.47411 41.6935 3 40.5 3Z" fill="white"/>
</g>
</svg>
