<svg width="48" height="48" viewBox="0 0 48 48" fill="none" xmlns="http://www.w3.org/2000/svg">
<g id="instagram">
<path id="Vector" d="M24.0094 13.2188C18.0469 13.2188 13.2375 18.0282 13.2375 23.9907C13.2375 29.9532 18.0469 34.7625 24.0094 34.7625C29.9719 34.7625 34.7813 29.9532 34.7813 23.9907C34.7813 18.0282 29.9719 13.2188 24.0094 13.2188ZM24.0094 30.9938C20.1563 30.9938 17.0063 27.8532 17.0063 23.9907C17.0063 20.1282 20.1469 16.9875 24.0094 16.9875C27.8719 16.9875 31.0125 20.1282 31.0125 23.9907C31.0125 27.8532 27.8625 30.9938 24.0094 30.9938ZM37.7344 12.7782C37.7344 14.175 36.6094 15.2907 35.2219 15.2907C33.825 15.2907 32.7094 14.1657 32.7094 12.7782C32.7094 11.3907 33.8344 10.2657 35.2219 10.2657C36.6094 10.2657 37.7344 11.3907 37.7344 12.7782ZM44.8688 15.3282C44.7094 11.9625 43.9406 8.9813 41.475 6.52505C39.0188 4.0688 36.0375 3.30005 32.6719 3.1313C29.2031 2.93442 18.8063 2.93442 15.3375 3.1313C11.9813 3.29067 9 4.05942 6.53438 6.51567C4.06875 8.97192 3.30938 11.9532 3.14063 15.3188C2.94375 18.7875 2.94375 29.1844 3.14063 32.6532C3.3 36.0188 4.06875 39 6.53438 41.4563C9 43.9125 11.9719 44.6813 15.3375 44.85C18.8063 45.0469 29.2031 45.0469 32.6719 44.85C36.0375 44.6907 39.0188 43.9219 41.475 41.4563C43.9313 39 44.7 36.0188 44.8688 32.6532C45.0656 29.1844 45.0656 18.7969 44.8688 15.3282ZM40.3875 36.375C39.6562 38.2125 38.2406 39.6282 36.3938 40.3688C33.6281 41.4657 27.0656 41.2125 24.0094 41.2125C20.9531 41.2125 14.3813 41.4563 11.625 40.3688C9.7875 39.6375 8.37188 38.2219 7.63125 36.375C6.53438 33.6094 6.7875 27.0469 6.7875 23.9907C6.7875 20.9344 6.54375 14.3625 7.63125 11.6063C8.3625 9.7688 9.77813 8.35317 11.625 7.61255C14.3906 6.51567 20.9531 6.7688 24.0094 6.7688C27.0656 6.7688 33.6375 6.52505 36.3938 7.61255C38.2313 8.3438 39.6469 9.75942 40.3875 11.6063C41.4844 14.3719 41.2313 20.9344 41.2313 23.9907C41.2313 27.0469 41.4844 33.6188 40.3875 36.375Z" fill="white"/>
</g>
</svg>
