<svg width="48" height="48" viewBox="0 0 48 48" fill="none" xmlns="http://www.w3.org/2000/svg">
<g id="line">
<path id="Vector" d="M28.5094 19.1438V25.8094C28.5094 25.9781 28.3781 26.1094 28.2094 26.1094H27.1406C27.0375 26.1094 26.9438 26.0531 26.8969 25.9875L23.8406 21.8625V25.8188C23.8406 25.9875 23.7094 26.1188 23.5406 26.1188H22.4719C22.3031 26.1188 22.1719 25.9875 22.1719 25.8188V19.1531C22.1719 18.9844 22.3031 18.8531 22.4719 18.8531H23.5313C23.625 18.8531 23.7281 18.9 23.775 18.9844L26.8313 23.1094V19.1531C26.8313 18.9844 26.9625 18.8531 27.1313 18.8531H28.2C28.3688 18.8438 28.5094 18.9844 28.5094 19.1438ZM20.8219 18.8438H19.7531C19.5844 18.8438 19.4531 18.975 19.4531 19.1438V25.8094C19.4531 25.9781 19.5844 26.1094 19.7531 26.1094H20.8219C20.9906 26.1094 21.1219 25.9781 21.1219 25.8094V19.1438C21.1219 18.9844 20.9906 18.8438 20.8219 18.8438ZM18.2438 24.4313H15.3281V19.1438C15.3281 18.975 15.1969 18.8438 15.0281 18.8438H13.9594C13.7906 18.8438 13.6594 18.975 13.6594 19.1438V25.8094C13.6594 25.8938 13.6875 25.9594 13.7438 26.0156C13.8 26.0625 13.8656 26.1 13.95 26.1H18.2344C18.4031 26.1 18.5344 25.9688 18.5344 25.8V24.7313C18.5344 24.5719 18.4031 24.4313 18.2438 24.4313ZM34.1344 18.8438H29.85C29.6906 18.8438 29.55 18.975 29.55 19.1438V25.8094C29.55 25.9688 29.6813 26.1094 29.85 26.1094H34.1344C34.3031 26.1094 34.4344 25.9781 34.4344 25.8094V24.7406C34.4344 24.5719 34.3031 24.4406 34.1344 24.4406H31.2188V23.3156H34.1344C34.3031 23.3156 34.4344 23.1844 34.4344 23.0156V21.9375C34.4344 21.7688 34.3031 21.6375 34.1344 21.6375H31.2188V20.5125H34.1344C34.3031 20.5125 34.4344 20.3813 34.4344 20.2125V19.1438C34.425 18.9844 34.2938 18.8438 34.1344 18.8438ZM45 10.6594V37.4063C44.9906 41.6063 41.55 45.0094 37.3406 45H10.5938C6.39375 44.9907 2.99063 41.5406 3 37.3406V10.5938C3.00938 6.39377 6.45938 2.99064 10.6594 3.00002H37.4063C41.6063 3.00939 45.0094 6.45002 45 10.6594ZM39.225 22.1531C39.225 15.3094 32.3625 9.74064 23.9344 9.74064C15.5063 9.74064 8.64375 15.3094 8.64375 22.1531C8.64375 28.2844 14.0813 33.4219 21.4313 34.3969C23.2219 34.7813 23.0156 35.4375 22.6125 37.8469C22.5469 38.2313 22.3031 39.3563 23.9344 38.6719C25.5656 37.9875 32.7375 33.4875 35.9531 29.7938C38.1656 27.3563 39.225 24.8906 39.225 22.1531Z" fill="white"/>
</g>
</svg>
